<?xml version="1.0" encoding="UTF-8" standalone="no"?>
<svg
   width="456"
   height="456"
   viewBox="0 0 456 456"
   version="1.1"
   xml:space="preserve"
   style="fill-rule:evenodd;clip-rule:evenodd;stroke-linejoin:round;stroke-miterlimit:2;"
   id="svg24"
   sodipodi:docname="splash.svg"
   inkscape:version="1.2 (dc2aedaf03, 2022-05-15)"
   xmlns:inkscape="http://www.inkscape.org/namespaces/inkscape"
   xmlns:sodipodi="http://sodipodi.sourceforge.net/DTD/sodipodi-0.dtd"
   xmlns="http://www.w3.org/2000/svg"
   xmlns:svg="http://www.w3.org/2000/svg"><defs
   id="defs28" /><sodipodi:namedview
   id="namedview26"
   pagecolor="#505050"
   bordercolor="#eeeeee"
   borderopacity="1"
   inkscape:showpageshadow="0"
   inkscape:pageopacity="0"
   inkscape:pagecheckerboard="0"
   inkscape:deskcolor="#505050"
   showgrid="false"
   inkscape:zoom="0.51754386"
   inkscape:cx="228"
   inkscape:cy="228.9661"
   inkscape:window-width="2496"
   inkscape:window-height="1575"
   inkscape:window-x="-9"
   inkscape:window-y="-9"
   inkscape:window-maximized="1"
   inkscape:current-layer="svg24" />
    
    
    
    
<path
   d="m 182.55138,293.66154 q -14.90625,7.875 -37.125,7.875 -28.6875,0 -45.9375,-18.46875 -17.249998,-18.46875 -17.249998,-48.46875 0,-32.25 19.406248,-52.125 19.40625,-19.875 49.21875,-19.875 19.125,0 31.6875,5.53125 v 16.78125 q -14.4375,-8.0625 -31.875,-8.0625 -23.15625,0 -37.59375,15.46875 -14.34375,15.46875 -14.34375,41.34375 0,24.5625 13.40625,39.1875 13.5,14.53125 35.34375,14.53125 20.25,0 35.0625,-9 z"
   id="path490"
   style="font-size:192px;font-family:'Segoe UI';-inkscape-font-specification:'Segoe UI, Normal';clip-rule:evenodd;fill:#ffffff;fill-rule:evenodd;stroke-linejoin:round;stroke-miterlimit:2" /><path
   d="m 213.20763,301.34904 q -4.3125,0 -7.40625,-3.09375 -3,-3.09375 -3,-7.40625 0,-4.3125 3,-7.40625 3.09375,-3.1875 7.40625,-3.1875 4.40625,0 7.5,3.1875 3.09375,3.09375 3.09375,7.40625 0,4.3125 -3.09375,7.40625 -3.09375,3.09375 -7.5,3.09375 z"
   id="path492"
   style="font-size:192px;font-family:'Segoe UI';-inkscape-font-specification:'Segoe UI, Normal';clip-rule:evenodd;fill:#ffffff;fill-rule:evenodd;stroke-linejoin:round;stroke-miterlimit:2" /><path
   d="m 351.48888,164.84904 -49.78125,134.4375 h -17.34375 l -48.75,-134.4375 h 17.53125 l 37.21875,106.59375 q 1.78125,5.15625 2.71875,11.90625 h 0.375 q 0.75,-5.625 3.09375,-12.09375 l 37.96875,-106.40625 z"
   id="path494"
   style="font-size:192px;font-family:'Segoe UI';-inkscape-font-specification:'Segoe UI, Normal';clip-rule:evenodd;fill:#ffffff;fill-rule:evenodd;stroke-linejoin:round;stroke-miterlimit:2" /><path
   d="m 374.08263,301.34904 q -4.3125,0 -7.40625,-3.09375 -3,-3.09375 -3,-7.40625 0,-4.3125 3,-7.40625 3.09375,-3.1875 7.40625,-3.1875 4.40625,0 7.5,3.1875 3.09375,3.09375 3.09375,7.40625 0,4.3125 -3.09375,7.40625 -3.09375,3.09375 -7.5,3.09375 z"
   id="path496"
   style="font-size:192px;font-family:'Segoe UI';-inkscape-font-specification:'Segoe UI, Normal';clip-rule:evenodd;fill:#ffffff;fill-rule:evenodd;stroke-linejoin:round;stroke-miterlimit:2" /></svg>
