<?xml version="1.0" encoding="UTF-8" standalone="no"?>
<svg
   width="456"
   height="456"
   viewBox="0 0 456 456"
   version="1.1"
   xml:space="preserve"
   style="fill-rule:evenodd;clip-rule:evenodd;stroke-linejoin:round;stroke-miterlimit:2;"
   id="svg24"
   sodipodi:docname="splash.svg"
   inkscape:version="1.2 (dc2aedaf03, 2022-05-15)"
   xmlns:inkscape="http://www.inkscape.org/namespaces/inkscape"
   xmlns:sodipodi="http://sodipodi.sourceforge.net/DTD/sodipodi-0.dtd"
   xmlns="http://www.w3.org/2000/svg"
   xmlns:svg="http://www.w3.org/2000/svg"><defs
   id="defs28"><linearGradient
     id="a3d518f9-4f73-4618-a6c7-3affff2a96b2"
     x1="8.85"
     y1="16.668"
     x2="8.85"
     y2="1.372"
     gradientUnits="userSpaceOnUse"><stop
       offset="0"
       stop-color="#5ea0ef"
       id="stop324" /><stop
       offset="1"
       stop-color="#0078d4"
       id="stop326" /></linearGradient><linearGradient
     id="a3d518f9-4f73-4618-a6c7-3affff2a96b2-2"
     x1="8.8500004"
     y1="16.667999"
     x2="8.8500004"
     y2="1.372"
     gradientUnits="userSpaceOnUse"><stop
       offset="0"
       stop-color="#5ea0ef"
       id="stop324-2" /><stop
       offset="1"
       stop-color="#0078d4"
       id="stop326-1" /></linearGradient><linearGradient
     id="a3d518f9-4f73-4618-a6c7-3affff2a96b2-5"
     x1="8.8500004"
     y1="16.667999"
     x2="8.8500004"
     y2="1.372"
     gradientUnits="userSpaceOnUse"><stop
       offset="0"
       stop-color="#5ea0ef"
       id="stop324-0" /><stop
       offset="1"
       stop-color="#0078d4"
       id="stop326-2" /></linearGradient></defs><sodipodi:namedview
   id="namedview26"
   pagecolor="#505050"
   bordercolor="#eeeeee"
   borderopacity="1"
   inkscape:showpageshadow="0"
   inkscape:pageopacity="0"
   inkscape:pagecheckerboard="0"
   inkscape:deskcolor="#505050"
   showgrid="false"
   inkscape:zoom="2.1270105"
   inkscape:cx="303.00744"
   inkscape:cy="234.83664"
   inkscape:window-width="2400"
   inkscape:window-height="1261"
   inkscape:window-x="3111"
   inkscape:window-y="-9"
   inkscape:window-maximized="1"
   inkscape:current-layer="svg24" />
    
    
    
    
<g
   id="f0768f65-3935-4a2f-81c1-1f137d0cc38f"
   transform="matrix(12.653854,0,0,12.670173,114.23064,114.00024)"
   style="clip-rule:evenodd;fill-rule:evenodd;stroke-linejoin:round;stroke-miterlimit:2"><path
     d="m 8.85,0 a 8.85,8.85 0 1 0 1.588,17.553 L 10.177,17.328 9.415,16.555 A 0.449,0.449 0 0 1 9.328,16.048 L 9.833,14.978 9.68,14.608 8.738,14.3 8.584,14.255 A 0.449,0.449 0 0 1 8.261,13.824 v -1.086 a 0.448,0.448 0 0 1 0.3,-0.422 L 9.679,11.916 9.832,11.548 9.373,10.654 9.3,10.508 A 0.45,0.45 0 0 1 9.384,9.984 L 10.148,9.228 A 0.449,0.449 0 0 1 10.66,9.143 l 1.074,0.52 0.375,-0.141 0.3,-0.9 A 0.444,0.444 0 0 1 12.517,8.448 L 12.572,8.393 A 0.449,0.449 0 0 1 12.89,8.262 h 1.072 a 0.45,0.45 0 0 1 0.419,0.285 l 0.39,1 0.358,0.1 L 16.054,9.173 16.2,9.1 a 0.438,0.438 0 0 1 0.2,-0.048 0.448,0.448 0 0 1 0.319,0.132 l 0.416,0.418 0.342,0.345 A 0.448,0.448 0 0 1 17.6,10.181 8.95,8.95 0 0 0 17.7,8.852 8.85,8.85 0 0 0 8.85,0 Z"
     fill="#0078d4"
     id="path331" /><path
     d="M 9.415,16.555 A 0.449,0.449 0 0 1 9.328,16.048 L 9.833,14.978 9.68,14.608 8.738,14.3 8.584,14.255 A 0.449,0.449 0 0 1 8.261,13.824 v -1.086 a 0.448,0.448 0 0 1 0.3,-0.422 L 9.679,11.916 9.832,11.548 9.373,10.654 9.3,10.508 A 0.45,0.45 0 0 1 9.384,9.984 L 10.148,9.228 A 0.449,0.449 0 0 1 10.66,9.143 l 1.074,0.52 0.375,-0.141 0.3,-0.9 A 0.444,0.444 0 0 1 12.517,8.448 L 12.572,8.393 A 0.449,0.449 0 0 1 12.89,8.262 h 1.072 a 0.45,0.45 0 0 1 0.419,0.285 l 0.39,1 0.358,0.1 L 16.054,9.173 16.2,9.1 a 0.366,0.366 0 0 1 0.3,-0.03 c 0,-0.016 0,-0.032 0,-0.048 a 7.648,7.648 0 1 0 -7.65,7.646 c 0.217,0 0.431,-0.015 0.644,-0.033 z"
     fill="url(#a3d518f9-4f73-4618-a6c7-3affff2a96b2)"
     id="path333"
     style="fill:url(#a3d518f9-4f73-4618-a6c7-3affff2a96b2-5)" /><path
     d="M 9.833,14.978 9.68,14.608 8.738,14.3 8.584,14.255 A 0.449,0.449 0 0 1 8.261,13.824 v -1.086 a 0.448,0.448 0 0 1 0.3,-0.422 L 9.679,11.916 9.832,11.548 9.373,10.654 9.3,10.508 A 0.45,0.45 0 0 1 9.384,9.984 L 10.148,9.228 A 0.449,0.449 0 0 1 10.66,9.143 l 1.074,0.52 0.375,-0.141 0.3,-0.9 A 0.444,0.444 0 0 1 12.517,8.448 L 12.572,8.393 A 0.449,0.449 0 0 1 12.89,8.262 h 1.072 a 0.45,0.45 0 0 1 0.419,0.285 l 0.39,1 0.276,0.078 a 6.242,6.242 0 1 0 -6.2,5.515 6.16,6.16 0 0 0 0.946,-0.08 z"
     fill="#5ea0ef"
     id="path335" /><path
     d="m 8.261,12.738 a 0.448,0.448 0 0 1 0.3,-0.422 L 9.679,11.916 9.832,11.548 9.373,10.654 9.3,10.508 A 0.45,0.45 0 0 1 9.384,9.984 L 10.148,9.228 A 0.449,0.449 0 0 1 10.66,9.143 l 1.074,0.52 0.375,-0.141 0.3,-0.9 A 0.444,0.444 0 0 1 12.517,8.448 L 12.572,8.393 A 0.449,0.449 0 0 1 12.89,8.262 h 0.049 A 4.147,4.147 0 1 0 8.26,13.039 Z"
     fill="#005ba1"
     id="path337" /><circle
     cx="7.4840002"
     cy="7.4060001"
     r="1.2460001"
     fill="#83b9f9"
     id="circle339" /><circle
     cx="8.8500004"
     cy="8.9770002"
     r="0.55299997"
     fill="#83b9f9"
     id="circle341" /><g
     id="e3580a9d-6c76-4a81-97fd-5df57b4e205f"><path
       d="m 18,13.772 v -1.079 l -0.058,-0.054 -1.1,-0.373 -0.285,-0.743 0.547,-1.134 0.058,-0.128 L 16.82,9.917 16.4,9.5 16.256,9.573 15.177,10.126 14.433,9.918 13.963,8.71 h -1.072 l -0.055,0.055 -0.372,1.1 -0.755,0.283 -1.248,-0.6 -0.761,0.752 0.073,0.142 0.553,1.078 -0.308,0.743 -1.3,0.471 v 1.086 l 0.154,0.045 1.152,0.381 0.309,0.743 -0.59,1.251 0.762,0.773 0.145,-0.073 1.08,-0.553 0.743,0.308 0.473,1.3 h 1.079 l 0.045,-0.154 0.381,-1.152 0.735,-0.309 1.261,0.59 0.763,-0.762 -0.073,-0.145 -0.553,-1.08 0.213,-0.755 z m -4.545,1 a 1.515,1.515 0 1 1 1.506,-1.524 v 0.009 a 1.517,1.517 0 0 1 -1.506,1.514 z"
       fill="#50e6ff"
       id="path343" /></g></g></svg>
