<?xml version="1.0" encoding="UTF-8" standalone="no"?>
<svg
   width="456"
   height="456"
   viewBox="0 0 456 456"
   version="1.1"
   xml:space="preserve"
   style="fill-rule:evenodd;clip-rule:evenodd;stroke-linejoin:round;stroke-miterlimit:2;"
   id="svg371"
   sodipodi:docname="appiconfg.svg"
   inkscape:version="1.2 (dc2aedaf03, 2022-05-15)"
   xmlns:inkscape="http://www.inkscape.org/namespaces/inkscape"
   xmlns:sodipodi="http://sodipodi.sourceforge.net/DTD/sodipodi-0.dtd"
   xmlns="http://www.w3.org/2000/svg"
   xmlns:svg="http://www.w3.org/2000/svg"><defs
   id="defs375" /><sodipodi:namedview
   id="namedview373"
   pagecolor="#505050"
   bordercolor="#eeeeee"
   borderopacity="1"
   inkscape:showpageshadow="0"
   inkscape:pageopacity="0"
   inkscape:pagecheckerboard="0"
   inkscape:deskcolor="#505050"
   showgrid="false"
   inkscape:zoom="2.8881579"
   inkscape:cx="213.97722"
   inkscape:cy="210.34169"
   inkscape:window-width="2400"
   inkscape:window-height="1261"
   inkscape:window-x="3111"
   inkscape:window-y="-9"
   inkscape:window-maximized="1"
   inkscape:current-layer="svg371" />
    
    
    
    
<path
   d="m 175.60336,283.30438 q -14.90625,7.875 -37.125,7.875 -28.6875,0 -45.937505,-18.46875 -17.25,-18.46875 -17.25,-48.46875 0,-32.25 19.40625,-52.125 19.406255,-19.875 49.218755,-19.875 19.125,0 31.6875,5.53125 v 16.78125 q -14.4375,-8.0625 -31.875,-8.0625 -23.15625,0 -37.59375,15.46875 -14.343755,15.46875 -14.343755,41.34375 0,24.5625 13.406255,39.1875 13.5,14.53125 35.34375,14.53125 20.25,0 35.0625,-9 z"
   id="path490"
   style="font-size:192px;font-family:'Segoe UI';-inkscape-font-specification:'Segoe UI, Normal';fill:#ffffff" /><path
   d="m 206.25961,290.99188 q -4.3125,0 -7.40625,-3.09375 -3,-3.09375 -3,-7.40625 0,-4.3125 3,-7.40625 3.09375,-3.1875 7.40625,-3.1875 4.40625,0 7.5,3.1875 3.09375,3.09375 3.09375,7.40625 0,4.3125 -3.09375,7.40625 -3.09375,3.09375 -7.5,3.09375 z"
   id="path492"
   style="font-size:192px;font-family:'Segoe UI';-inkscape-font-specification:'Segoe UI, Normal';fill:#ffffff" /><path
   d="m 344.54086,154.49188 -49.78125,134.4375 h -17.34375 l -48.75,-134.4375 h 17.53125 l 37.21875,106.59375 q 1.78125,5.15625 2.71875,11.90625 h 0.375 q 0.75,-5.625 3.09375,-12.09375 l 37.96875,-106.40625 z"
   id="path494"
   style="font-size:192px;font-family:'Segoe UI';-inkscape-font-specification:'Segoe UI, Normal';fill:#ffffff" /><path
   d="m 367.13461,290.99188 q -4.3125,0 -7.40625,-3.09375 -3,-3.09375 -3,-7.40625 0,-4.3125 3,-7.40625 3.09375,-3.1875 7.40625,-3.1875 4.40625,0 7.5,3.1875 3.09375,3.09375 3.09375,7.40625 0,4.3125 -3.09375,7.40625 -3.09375,3.09375 -7.5,3.09375 z"
   id="path496"
   style="font-size:192px;font-family:'Segoe UI';-inkscape-font-specification:'Segoe UI, Normal';fill:#ffffff" /></svg>
